<?xml version="1.0" encoding="UTF-8"?>
<svg viewBox="0 0 382.8 421.18" xmlns="http://www.w3.org/2000/svg">
 <path d="m223.03 122.92c-6.038-3.415-10.232-8.3-16.979-10.546-5.308-1.767-11.412-5.044-16.981-5.044-5.963 0-22.418-3.956-24.781 1.834-3.441 8.433 5.507 15.103 5.507 22.01 0 2.729 8.053 11.548 10.555 12.381 2.821 0.93901 5.684 3.843 7.802 5.961 2.48 2.479 6.472 2.514 9.179 5.503 4.172-6.18 5.946-5.007 0-8.254-3.788-2.068-7.599-3.153-11.014-5.503-8.425-5.798-17.75-14.089-17.438-25.678 0.146-5.439 0.345-4.586 5.507-4.586 4.802 0 9.503 1.139 13.767 2.752 5.308 2.008 21.845 10.006 15.603 17.425-3.331-7.115-29.975-21.221-25.7-4.585 1.237 4.813 6.027 4.844 10.096 6.878 2.544 1.271 11.015-2.367 11.015 0.91699 0 3.596 2.515 6.639 3.672 9.63 5.085-6.473 11.391-19.129 20.19-21.095" fill-rule="evenodd"/>
 <g fill="none" stroke="#000" stroke-linecap="square" stroke-miterlimit="10" stroke-width=".839">
  <path d="m223.03 122.92c-4.959-2.805-8.794-7.819-14.226-9.629-5.891-1.963-11.085-3.831-16.98-5.045-4.198-0.864-20.625-5.069-24.323-1.375-1.815 1.813-2.079-0.48399-3.212 2.292-0.349 0.854 0 2.753 0 3.668 0 3.982 0.509 6.656 1.836 10.088 1.491 3.855 3.301 7.514 5.048 11.005 2.636 5.268 9.043 7.602 12.39 11.922"/>
  <path d="m183.56 145.84c2.423 1.142 3.981 4.205 6.459 4.824 3.028 0.75601 5.183 2 7.309 4.348 3.095-4.585 5.975-4.618 1.836-8.254-1.548-1.36-8.28-3.668-10.556-3.668-2.423 0-7.226-5.673-9.638-6.879-3.141-1.57-6.895-8.951-8.259-12.381-0.71901-1.806-3.477-11.147-1.836-12.839 0.90399-0.932 6.91 0 8.26 0 8.297 0 18.007 5.216 23.863 10.088"/>
  <path d="m201 121.08c2.725 2.912 5.506 6.818 2.754 10.088-3.331-7.115-29.975-21.221-25.7-4.585 1.237 4.813 6.027 4.844 10.096 6.878 2.544 1.271 11.015-2.367 11.015 0.91701 0 3.596 2.515 6.639 3.672 9.63 3.223-4.101 6.141-10.703 10.097-13.756"/>
  <path d="m212.94 130.25c3.772-1.814 5.978-6.417 10.095-7.337"/>
  <path d="m223.03 122.92c-6.038-3.415-10.232-8.3-16.979-10.546-5.308-1.767-11.412-5.044-16.981-5.044-5.963 0-22.418-3.956-24.781 1.834-3.441 8.433 5.507 15.103 5.507 22.01 0 2.729 8.053 11.548 10.555 12.381 2.821 0.93901 5.684 3.843 7.802 5.961 2.48 2.479 6.472 2.514 9.179 5.503 4.172-6.18 5.946-5.007 0-8.254-3.788-2.068-7.599-3.153-11.014-5.503-8.425-5.798-17.75-14.089-17.438-25.678 0.146-5.439 0.345-4.586 5.507-4.586 4.802 0 9.503 1.139 13.767 2.752 5.308 2.008 21.845 10.006 15.603 17.425-3.331-7.115-29.975-21.221-25.7-4.585 1.237 4.813 6.027 4.844 10.096 6.878 2.544 1.271 11.015-2.367 11.015 0.91699 0 3.596 2.515 6.639 3.672 9.63 5.085-6.473 11.391-19.129 20.19-21.095"/>
 </g>
 <path d="m308.39 109.16c4.864 2.241 10.054 5.473 14.889 8.695 3.955 2.636 14.349 12.063 14.481 16.984 9.18-4.344 14.566-17.175 18.816-25.679 1.045-2.093 2.428-22.927 0.91699-22.927-3.859 0-16.613 1.466-19.274 4.126-3.982 3.982-10.507 5.171-15.145 7.795-4.72 2.671-11.007 6.859-14.684 11.006m30.288-12.84c6.262-3.334 17.696-3.507 14.227 6.878-2.111 6.321-3.605 9.758-7.326 15.335-2.768 4.15-7.631 7.178-8.737-0.204-1.162-7.757 4.99-7.078 10.098-9.629 3.873-1.936 3.347-8.597-0.918-9.63-4.511-1.092-8.376 4.701-11.015 7.337-1.983 1.981-4.216 5.073-6.883 5.961-5.76 1.918-2.875-3.875-1.377-5.961 2.378-3.313 7.645-9.695 11.931-10.087" fill-rule="evenodd"/>
 <g fill="none" stroke="#000" stroke-linecap="square" stroke-miterlimit="10" stroke-width=".839">
  <path d="m308.39 109.16c4.864 2.241 10.054 5.473 14.889 8.695 3.955 2.636 14.349 12.063 14.481 16.984 9.257-4.38 20.192-22.444 20.192-32.558 0-3.354 1.499-11.293 0-14.215-1.027-2.003-5.81-1.772-9.178 0"/>
  <path d="m348.78 88.066c-6.895-0.10101-12.57 3.176-18.152 6.895-1.927 1.284-3.82 0.71-5.508 1.834-2.029 1.351-3.51 3.256-5.507 4.586-3.993 2.659-7.874 4.007-11.218 7.778"/>
  <path d="m308.39 109.16c4.864 2.241 10.054 5.473 14.889 8.695 3.955 2.636 14.349 12.063 14.481 16.984 9.18-4.344 14.566-17.175 18.816-25.679 1.045-2.093 2.428-22.927 0.91699-22.927-3.859 0-16.613 1.466-19.274 4.126-3.982 3.982-10.507 5.171-15.145 7.795-4.72 2.671-11.007 6.859-14.684 11.006"/>
  <path d="m338.68 96.32c14.813-7.888 16.662 6.418 11.014 16.508-1.791 3.2-5.438 10.649-9.178 10.088-2.856-0.429-4.203-4.186-3.673-7.336 1.209-7.179 6.95-3.418 11.016-7.337 2.659-2.564 2.317-6.558-0.91898-8.254-8.022-4.204-12.782 11.555-20.191 12.84"/>
  <path d="m326.75 112.83c-7.037-2.481 7.733-16.124 11.932-16.508"/>
  <path d="m338.68 96.32c6.262-3.334 17.696-3.507 14.227 6.878-2.111 6.321-3.605 9.758-7.326 15.335-2.768 4.15-7.631 7.178-8.737-0.204-1.162-7.757 4.99-7.078 10.098-9.629 3.873-1.936 3.347-8.597-0.918-9.63-4.511-1.092-8.376 4.701-11.015 7.337-1.983 1.981-4.216 5.073-6.883 5.961-5.76 1.918-2.875-3.875-1.377-5.961 2.378-3.313 7.645-9.695 11.931-10.087"/>
 </g>
 <path d="m264.33 117.41c-5.392-3.504-22.386-8.454-27.076 0.917-1.928 3.852-11.801 4.324-13.769 8.254-2.101 4.195-9.949 8.135-13.308 11.922 3.468-2.375 7.378-2.546 11.013-4.585 3.27-1.834 5.64-2.83 9.18-3.668-2.02 3.707-5.519 5.629-6.426 10.088-1.128 5.543 1.047 11.104 7.344 10.088-1.224-1.133-2.349-5.583-1.836-8.254 1.004-5.229 4.653-5.502 9.179-5.502-3.82 4.917-7.915 15.016-3.672 21.093 1.963 2.811 8.038 5.722 11.473 2.293 2.587-2.582 8.325 7.647 11.474 7.795-2.526 5.82-0.79498 14.033-1.836 20.176 5.887-4.446 17.521-2.751 24.782-2.751-3.444-6.827-3.672-12.724-3.672-20.176 0-1.511 2.36-5.433 3.672-6.42 1.162-0.875 2.923 1.238 3.672 0.91699 1.478-0.632 2.976-2.405 4.589-3.21 4.233-2.113 9.652-6.919 10.095-11.464 0.51502-5.293-6.083-13.352-11.93-10.088-0.82101-9.885 13.919-1.728 16.52 0.91699 2.267 2.304 5.189 3.388 3.213 7.337-1.474 2.944-3.883 5.937-6.884 7.337 5.298 0 10.798 0.744 15.604-1.835 1.7-0.91299 5.224-5.502 6.883-5.502 8.24 0 5.293 14.545 4.131 20.176-1.919 9.301-4.274 7.564-12.851 8.254-5.482 0.44101-21.124 1.888-21.109 10.088-2.391-4.222-6.481-4.622-9.18-8.253 2.489 7.042 7.282 15.176 7.344 22.927 0.26798-25.569 44.857-4.544 44.056-27.513 7.937 6.734-1.906 15.628-8.226 18.783-4.872 2.433-11.22 3.227-16.556 3.227-3.519 0-9.22-1.017-11.932 0.91701 3.517 1.266 5.837 4.241 9.178 5.502 3.567 1.347 7.241 0.918 11.016 0.918 7.32 0 12.502-0.95401 18.354-5.503 13.247-10.295 10.765-27.637 5.509-42.187-1.387 3.008-3.106 9.202-2.755 12.839-1.899-3.632-3.7-6.732-6.424-10.088-0.522 1.209-0.082001 0.19701-0.91702 0.91701 5.729-5.559 0.551-19.624-3.672-23.844-3.912-3.91-8.314-8.056-12.85-11.922-1.903-1.623-3.865-2.458-5.509-3.669-2.05-1.511-3.154-2.953-5.507-4.126-6.788-3.387-22.531-0.867-27.076 3.668-6.532 6.518-9.74 20.107-8.72 28.889 0.001007-8.889-2.627-17.617-4.588-25.679m-18.357 25.679c5.879-1.083 23.325 7.853 22.946 14.673 1.211-5.521 3.845-8.423 7.802-12.38 2.889-2.888 6.344-2.508 9.638-4.127 0.755 1.995-0.83301 4.296 0.91901 6.42-2.232 0.897-8.477 2.264-9.639 4.586-3.28 6.554-6.862 10.917-8.72 18.342 0.35901-9.006-11.79-21.861-20.192-19.259 0.50499-3.138-0.64801-5.992-2.754-8.255" fill-rule="evenodd"/>
 <g fill="none" stroke="#000" stroke-linecap="square" stroke-miterlimit="10" stroke-width=".839">
  <path d="m264.33 117.41c-5.392-3.504-22.386-8.454-27.076 0.917-1.928 3.852-11.801 4.324-13.769 8.254-2.101 4.195-9.949 8.135-13.308 11.922 3.468-2.375 7.378-2.546 11.013-4.585 3.27-1.834 5.64-2.83 9.18-3.668-2.935 5.387-12.091 13.667-3.672 20.176"/>
  <path d="m226.7 150.43h4.59c-1.224-1.133-2.349-5.583-1.836-8.254 1.004-5.229 4.653-5.502 9.179-5.502-3.82 4.917-7.915 15.016-3.672 21.093 1.963 2.811 8.038 5.722 11.473 2.293 2.587-2.582 8.325 7.647 11.474 7.795-2.074 4.778-0.91901 11.379-0.91901 16.508"/>
  <path d="m256.99 184.36c-0.676 1.243-1.09 2.25-0.91699 3.668 5.887-4.446 17.521-2.751 24.782-2.751-3.444-6.827-3.672-12.724-3.672-20.176 0-1.511 2.36-5.433 3.672-6.42 1.162-0.875 2.923 1.238 3.672 0.91701 1.478-0.632 2.976-2.405 4.589-3.21 4.233-2.113 9.652-6.919 10.095-11.464 0.51498-5.293-6.083-13.352-11.93-10.088-0.26798-1.819 0.54001-2.496 1.834-3.668"/>
  <path d="m289.12 131.17c5.508-2.729 13.369 0.795 16.522 5.502 3.411 5.092 0.29199 11.05-5.508 13.757 7.44 0 14.146 0.539 19.734-5.044 3.747-3.744 6.64-2.887 7.802 2.292 1.195 5.331 0.935 17.79-2.754 22.011-2.053 2.349-7.137 1.834-11.015 1.834"/>
  <path d="m313.9 171.52c-5.458 0.90799-21.125 1.555-21.109 10.088-2.391-4.222-6.481-4.622-9.18-8.253 2.489 7.042 7.282 15.176 7.344 22.927 0.10199-9.677 10.023-14.673 18.356-14.673 8.563 0 16.456-0.38899 22.947-5.502"/>
  <path d="m332.26 176.11c2.163-1.994 2.855-4.375 2.752-7.337 7.937 6.734-1.906 15.628-8.226 18.783-4.872 2.433-11.22 3.227-16.556 3.227-3.519 0-9.22-1.017-11.932 0.91699 4.016 1.445 6.543 4.624 10.555 5.961 3.572 1.191 8.628 0.729 12.393 0.459 8.188-0.58699 12.03-3.2 18.354-8.254"/>
  <path d="m339.6 189.86c10.507-10.492 7.454-26.425 2.755-39.436-1.387 3.008-3.106 9.202-2.755 12.839-1.899-3.632-3.7-6.732-6.424-10.088-0.522 1.209-0.082001 0.19701-0.91702 0.91701 4.725-4.584 1.063-15.238-0.918-19.258-0.92398-1.875-0.948-2.781-2.754-4.586-1.072-1.072-2.748-0.91101-3.672-1.834-0.923-0.922-0.76498-2.598-1.836-3.668-2.172-2.171-7.148-6.861-10.097-8.254"/>
  <path d="m312.98 116.5c-3.987-0.6-6.564-5.758-11.932-6.419-4.187-0.51601-16.61-1.746-19.733 1.375-1.519 1.518-3.271 1.487-4.59 4.127-1.233 2.469-2.941 4.739-4.13 7.337-2.608 5.701-4.405 13.866-3.672 20.177 0-8.889-2.628-17.617-4.589-25.679"/>
  <path d="m264.33 117.41c-5.392-3.504-22.386-8.454-27.076 0.917-1.928 3.852-11.801 4.324-13.769 8.254-2.101 4.195-9.949 8.135-13.308 11.922 3.468-2.375 7.378-2.546 11.013-4.585 3.27-1.834 5.64-2.83 9.18-3.668-2.02 3.707-5.519 5.629-6.426 10.088-1.128 5.543 1.047 11.104 7.344 10.088-1.224-1.133-2.349-5.583-1.836-8.254 1.004-5.229 4.653-5.502 9.179-5.502-3.82 4.917-7.915 15.016-3.672 21.093 1.963 2.811 8.038 5.722 11.473 2.293 2.587-2.582 8.325 7.647 11.474 7.795-2.526 5.82-0.79498 14.033-1.836 20.176 5.887-4.446 17.521-2.751 24.782-2.751-3.444-6.827-3.672-12.724-3.672-20.176 0-1.511 2.36-5.433 3.672-6.42 1.162-0.875 2.923 1.238 3.672 0.91699 1.478-0.632 2.976-2.405 4.589-3.21 4.233-2.113 9.652-6.919 10.095-11.464 0.51502-5.293-6.083-13.352-11.93-10.088-0.82101-9.885 13.919-1.728 16.52 0.91699 2.267 2.304 5.189 3.388 3.213 7.337-1.474 2.944-3.883 5.937-6.884 7.337 5.298 0 10.798 0.744 15.604-1.835 1.7-0.91299 5.224-5.502 6.883-5.502 8.24 0 5.293 14.545 4.131 20.176-1.919 9.301-4.274 7.564-12.851 8.254-5.482 0.44101-21.124 1.888-21.109 10.088-2.391-4.222-6.481-4.622-9.18-8.253 2.489 7.042 7.282 15.176 7.344 22.927 0.26798-25.569 44.857-4.544 44.056-27.513 7.937 6.734-1.906 15.628-8.226 18.783-4.872 2.433-11.22 3.227-16.556 3.227-3.519 0-9.22-1.017-11.932 0.91701 3.517 1.266 5.837 4.241 9.178 5.502 3.567 1.347 7.241 0.918 11.016 0.918 7.32 0 12.502-0.95401 18.354-5.503 13.247-10.295 10.765-27.637 5.509-42.187-1.387 3.008-3.106 9.202-2.755 12.839-1.899-3.632-3.7-6.732-6.424-10.088-0.522 1.209-0.082001 0.19701-0.91702 0.91701 5.729-5.559 0.551-19.624-3.672-23.844-3.912-3.91-8.314-8.056-12.85-11.922-1.903-1.623-3.865-2.458-5.509-3.669-2.05-1.511-3.154-2.953-5.507-4.126-6.788-3.387-22.531-0.867-27.076 3.668-6.532 6.518-9.74 20.107-8.72 28.889 0.001007-8.889-2.627-17.617-4.588-25.679"/>
  <path d="m245.98 143.09c5.879-1.083 23.325 7.853 22.946 14.673 1.211-5.521 3.845-8.423 7.802-12.38 2.889-2.888 6.344-2.508 9.638-4.127 0.755 1.995-0.83301 4.296 0.91901 6.42-2.232 0.897-8.477 2.264-9.639 4.586-3.28 6.554-6.862 10.917-8.72 18.342 0.19699-4.952-4.952-13.346-9.179-15.59"/>
  <path d="m259.74 155.02c-2.769-3.529-7.417-4.782-11.014-3.668 0.506-3.136-0.647-5.991-2.754-8.254"/>
  <path d="m245.98 143.09c5.879-1.083 23.325 7.853 22.946 14.673 1.211-5.521 3.845-8.423 7.802-12.38 2.889-2.888 6.344-2.508 9.638-4.127 0.755 1.995-0.83301 4.296 0.91901 6.42-2.232 0.897-8.477 2.264-9.639 4.586-3.28 6.554-6.862 10.917-8.72 18.342 0.35901-9.006-11.79-21.861-20.192-19.259 0.50499-3.138-0.64801-5.992-2.754-8.255"/>
 </g>
 <path d="m286.36 170.6c1.621-7.986 3.48-11.371 11.015-15.132 6.503-3.247 15.284 1.865 22.028-2.293-5.334 4.542-5.075 13.543-11.933 16.966-7.253 3.622-13.678-0.36-21.11 0.459m5.508-8.253c-5.233 6.601 7.543 9.192 11.931 6.42 4.034-2.549 9.853-13.108 0.918-11.006 1.552 3.414 0.77301 7.868-2.753 9.63-4.322 2.16-7.406-2.355-10.096-5.044" fill-rule="evenodd"/>
 <g fill="none" stroke="#000" stroke-linecap="square" stroke-miterlimit="10" stroke-width=".839">
  <path d="m286.36 170.6c1.621-7.986 3.48-11.371 11.015-15.132 6.503-3.247 15.284 1.865 22.028-2.293-5.334 4.542-5.075 13.543-11.933 16.966-7.253 3.622-13.678-0.36-21.11 0.459"/>
  <path d="m286.36 170.6c1.621-7.986 3.48-11.371 11.015-15.132 6.503-3.247 15.284 1.865 22.028-2.293-5.334 4.542-5.075 13.543-11.933 16.966-7.253 3.622-13.678-0.36-21.11 0.459"/>
  <path d="m291.87 162.35c-5.233 6.601 7.543 9.192 11.931 6.42 4.034-2.549 9.853-13.108 0.918-11.006 1.552 3.414 0.77301 7.868-2.753 9.63-4.322 2.16-7.406-2.355-10.096-5.044"/>
  <path d="m291.87 162.35c-5.233 6.601 7.543 9.192 11.931 6.42 4.034-2.549 9.853-13.108 0.918-11.006 1.552 3.414 0.77301 7.868-2.753 9.63-4.322 2.16-7.406-2.355-10.096-5.044"/>
 </g>
 <path d="m225.78 164.19c5.397-2.096 15.288-2.168 19.275 2.751 3.579-11.365 5.387 6.429 5.508 9.171 0.144 3.263 0.63899 5.703-0.23801 9.205-0.93599 3.739-4.355 5.499-5.27 9.137-0.44101-4.888 0.91699-10.482 0.91699-15.591 0-2.321-9.717 1.961-12.85 1.834-6.32-0.256-8.083-2.631-13.054-5.944-1.257-0.83699-3.468-3.545-3.468-5.061 0-1.656-3.9-0.91701-5.507-0.91701 0.834 2.495 1.569 4.985 2.754 7.337-3.586-1.45-5.594-5.589-8.261-8.254-3.615-3.615-0.55499-6.506 1.837-10.089 3.666 11.006 13.995 4.237 4.589-0.45801-3.473-1.733-6.99-1.601-9.179 2.293-2.504 4.456 0.53699 8.948 2.753 11.922 1.249 1.676 3.178 2.681 4.131 4.585 0.983 1.965 0.515 4.211 1.853 6.216 2.429 3.638 6.414 6.774 10.996 5.247 5.568-1.855 19.515-9.499 21.57 2.294-9.647-8.573-15.263 5.386-22.487 7.795-9.14 3.047-14.881-5.18-17.439-12.839-1.294-3.875-0.84401-7.653-2.754-11.465-2.284-4.56-4.13-6.694-4.13-11.463 0-4.402 6.883-16.357 11.933-12.381 2.042-9.295 9.614-9.295 11.931 0 0.653 2.62 0.472 8.253 4.59 8.253 3.281 0 6.114-0.283 8.261 2.752-4.912-0.465-11.708 4.397-15.604 0 1.72 2.398 4.371 3.951 7.343 3.67m12.851 6.419c-8 5.309-8.275 1.229-14.687-2.751-0.56299 4.292 6.385 11.94 11.015 9.629 2.157-1.076 10.394-7.361 3.672-6.878" fill-rule="evenodd"/>
 <g fill="none" stroke="#000" stroke-linecap="square" stroke-miterlimit="10" stroke-width=".839">
  <path d="m225.78 164.19c5.397-2.096 15.288-2.168 19.275 2.751 3.579-11.365 5.387 6.429 5.508 9.171 0.144 3.263 0.63899 5.703-0.23801 9.205-0.93599 3.739-4.355 5.499-5.27 9.137-0.382-4.236 0.91699-8.882 0.91699-13.298 0-7.193-5.074-1.395-9.178-0.459-6.893 1.573-19.964-4.021-20.193-11.922"/>
  <path d="m216.6 168.77h-5.507c0.834 2.495 1.569 4.985 2.754 7.337-3.586-1.45-5.594-5.589-8.261-8.254-3.615-3.615-0.55501-6.506 1.837-10.089 1.148 3.45 1.266 6.264 5.507 6.42 3.945 0.146 3.295-0.385 2.752-2.751-1.354-5.899-12.849-7.917-12.849-0.45801 0 2.269-1.637 7.622 0.714 9.188 2.689 1.792 5.174 3.95 6.629 6.861 2.53 5.065 5.084 14.852 13.767 10.087"/>
  <path d="m223.95 187.11c4.187-5.709 18.77-5.419 20.193 2.752-7.474-6.641-15.182 1.413-20.193 6.419-5.869 5.863-15.849-0.73801-17.897-6.878-1.404-4.209-1.919-8.222-3.212-12.381-1.125-3.619-3.849-6.033-5.049-9.63-2.33-6.982 3.635-11.724 5.966-17.883"/>
  <path d="m203.76 149.51c1.867-1.251 3.842-1.312 5.508 0 2.042-9.295 9.614-9.295 11.931 0 0.653 2.62 0.472 8.253 4.59 8.253 3.281 0 6.114-0.28299 8.261 2.752-4.912-0.465-11.708 4.397-15.604 0 1.72 2.396 4.37 3.949 7.343 3.668"/>
  <path d="m225.78 164.19c5.397-2.096 15.288-2.168 19.275 2.751 3.579-11.365 5.387 6.429 5.508 9.171 0.144 3.263 0.63899 5.703-0.23801 9.205-0.93599 3.739-4.355 5.499-5.27 9.137-0.44101-4.888 0.91699-10.482 0.91699-15.591 0-2.321-9.717 1.961-12.85 1.834-6.32-0.256-8.083-2.631-13.054-5.944-1.257-0.83699-3.468-3.545-3.468-5.061 0-1.656-3.9-0.91701-5.507-0.91701 0.834 2.495 1.569 4.985 2.754 7.337-3.586-1.45-5.594-5.589-8.261-8.254-3.615-3.615-0.55499-6.506 1.837-10.089 3.666 11.006 13.995 4.237 4.589-0.45801-3.473-1.733-6.99-1.601-9.179 2.293-2.504 4.456 0.53699 8.948 2.753 11.922 1.249 1.676 3.178 2.681 4.131 4.585 0.983 1.965 0.515 4.211 1.853 6.216 2.429 3.638 6.414 6.774 10.996 5.247 5.568-1.855 19.515-9.499 21.57 2.294-9.647-8.573-15.263 5.386-22.487 7.795-9.14 3.047-14.881-5.18-17.439-12.839-1.294-3.875-0.84401-7.653-2.754-11.465-2.284-4.56-4.13-6.694-4.13-11.463 0-4.402 6.883-16.357 11.933-12.381 2.042-9.295 9.614-9.295 11.931 0 0.653 2.62 0.472 8.253 4.59 8.253 3.281 0 6.114-0.283 8.261 2.752-4.912-0.465-11.708 4.397-15.604 0 1.72 2.398 4.371 3.951 7.343 3.67"/>
  <path d="m238.64 170.6c-8 5.309-8.275 1.229-14.687-2.751-0.56299 4.292 6.385 11.94 11.015 9.629 2.157-1.076 10.394-7.361 3.672-6.878"/>
  <path d="m238.64 170.6c-8 5.309-8.275 1.229-14.687-2.751-0.56299 4.292 6.385 11.94 11.015 9.629 2.157-1.076 10.394-7.361 3.672-6.878"/>
 </g>
 <path d="m219.36 113.75c4.237-4.351 14.282-6.833 21.111-8.254 4.662-0.96999 10.037-1.752 14.686 0 4.681 1.764 8.634 9.038 12.85 10.088 2.86 0.713 3.093-1.02 4.13-4.127 0.802-2.402 3.625-3.528 4.589-6.42 1.563-4.689 6.408-8.554 11.014-10.088 9.987-3.327 19.747-3.088 28.913 3.21-1.036-7.906-7.61-16.243-14.687-17.424-7.661-1.279-23.07-2.385-25.698 7.336 0-7.191 1.167-12.358 6.425-17.425 7.207-6.946 19.754-2.704 26.617 3.668-3.467-9.026-12.926-15.59-22.945-15.59-6.491 0-21.124 6.679-21.11 14.673-4.406-6.869 4.861-18.737 10.554-20.635 4.053-1.351 23.136-6.817 22.488 2.293 0.78201-19.66-44.793-17.586-41.305 0.917-1.735-3.72-2.157-15.338 0.91901-18.341 5.73-5.594 20.093-0.187 26.618 0.917-7.526-1.122-36.879-22.848-40.386-2.752-2.298-6.017-16.603-6.903-22.029-7.336-4.53-0.361-11.879 0.87-15.144 4.126-2.738 2.733-6.018 3.263-8.72 5.961-2.873 2.869-5.286 6.199-8.261 9.171-1.75 1.749-6.425 10.321-6.425 12.84 0 3.242-4.226 7.958-4.589 11.921 5.719-12.106 22.106-27.123 34.879-30.264 9.827-2.417 32.62-5.698 33.961 10.088-4.469-5.234-16.803-7.337-23.406-7.337-5.638 0-11.989 1.624-16.979 4.585-9.354 5.552-14.335 13.689-20.636 23.131-5.004 7.499-11.447 18.721-10.572 28.227 0.05899-6.951 11.092-17.881 15.603-22.928 4.131-4.622 13.031-15.591 19.734-15.591 7.7 0 16.076-5.499 24.322-1.375 3.94 1.97 8.991 0.513 12.85 3.21 2.97 2.076 8.167 6.631 8.26 10.088-8.419-7.466-28.015-7.554-37.631-2.751-6.123 3.058-11.89 9.098-14.685 15.591-2.142 4.974-0.901 15.182-6.426 17.425 5.975-1.813 12.652-4.838 16.522-10.088 0.90401-1.227 1.507-5.502 3.211-5.502 1.285 0 4.524-3.146 5.507-4.127 3.371-3.366 10.773-4.144 15.146-4.126 8.277 0.032997 11.837 3.572 17.438 9.17-3.571 0.69-8.32 0-11.933 0-6.324 0-9.49 1.88-14.685 4.586-4.614 2.403-8.143 3.552-11.933 7.337-2.535 2.531-0.918 11.114-0.918 14.673 0.894-0.891 2.033-1.726 2.756-2.751" fill-rule="evenodd"/>
 <g fill="none" stroke="#000" stroke-linecap="square" stroke-miterlimit="10" stroke-width=".839">
  <path d="m219.36 113.75c3.791-3.893 11.805-4.982 17.439-7.795 9.032-4.509 18.432-0.41 25.903 4.568 1.583 1.054 3.547 4.624 5.304 5.062 3.386 0.844 1.492-0.45 3.671-2.751 3.047-3.22 5.12-8.133 7.785-12.126 5.23-7.84 16.945-8.049 25.257-8.049"/>
  <path d="m304.72 92.652c3.901 1.122 8.691 3.274 11.933 5.502-1.036-7.906-7.61-16.243-14.687-17.424-7.661-1.279-23.07-2.385-25.698 7.336 0-10.062 4.51-21.605 16.521-21.093"/>
  <path d="m292.79 66.973c5.722-0.227 12.469 3.575 16.521 7.336-3.467-9.026-12.926-15.59-22.945-15.59-6.491 0-21.124 6.679-21.11 14.673-3.602-5.614 2.708-12.756 5.048-17.425 2.537-5.064 17.383-7.038 22.487-5.503"/>
  <path d="m292.79 50.465c2.839-0.214 5.717 1.633 5.507 4.586 0.78201-19.66-44.793-17.586-41.305 0.917-0.991-2.125-2.426-12.247-0.45902-14.214 0.953-0.953-0.198-2.266 0.45902-3.21 0.80701-1.159 2.258-1.338 3.213-2.293 1.596-1.593 8.351-0.459 10.557-0.459"/>
  <path d="m270.76 35.791c4.715 0.723 9.224 1.983 13.768 2.752-7.526-1.122-36.879-22.848-40.386-2.752-2.044-5.352-15.306-6.942-20.193-7.336-4.983-0.401-9.418 0.317-13.767 2.75"/>
  <path d="m210.18 31.206c-6.171 0.671-15.522 9.966-18.8 14.878-4.798 7.191-11.59 17.468-12.408 26.391 4.48-9.485 16.754-21.664 25.7-26.137 4.34-2.17 6.069-4.127 11.015-4.127 3.465 0 10.257-1.523 13.768-2.752"/>
  <path d="m229.46 39.459c3.552 1.984 8.2 1.346 11.933 3.21 2.734 1.366 6.158 6.487 6.425 9.629-3.615-4.234-15.402-7.337-20.652-7.337-3.743 0-7.237-0.060997-10.556 0.917-16.169 4.764-23.041 16.648-32.125 30.265"/>
  <path d="m184.48 76.145c-0.481 4.326-4.079 9.067-5.966 12.839-1.733 3.463-2.65 8.044-2.293 11.923 0.063004-7.5 10.115-13.798 13.308-20.177 1.742-3.48 6.29-6.765 8.72-9.171 2.429-2.405 6.395-6.89 9.18-8.254 10.698-5.241 30.571-5.261 41.302 0.917"/>
  <path d="m248.73 64.222c2.968 2.323 8.161 6.431 8.26 10.088-8.419-7.466-28.015-7.554-37.631-2.751-6.123 3.058-11.89 9.098-14.685 15.591-2.142 4.974-0.901 15.182-6.426 17.425 4.108-1.247 10.84-2.943 12.85-7.336"/>
  <path d="m211.1 97.238c3.73-1.413 5.512-6.424 7.802-8.712 2.79-2.789 7.836-4.161 10.097-6.42 2.185-2.184 11.631-0.893 14.226-0.459 6.671 1.115 8.107 3.513 12.851 8.253-3.746 0.724-7.172-0.4-11.014 0-4.43 0.461-8.735 0.236-12.851 2.293-3.389 1.695-9.143 4.089-11.932 6.878-4.105 4.103-3.672 6.082-3.672 11.922"/>
  <path d="m216.6 110.99v5.503c0.892-0.89 2.03-1.725 2.754-2.751"/>
  <path d="m219.36 113.75c4.237-4.351 14.282-6.833 21.111-8.254 4.662-0.96999 10.037-1.752 14.686 0 4.681 1.764 8.634 9.038 12.85 10.088 2.86 0.713 3.093-1.02 4.13-4.127 0.802-2.402 3.625-3.528 4.589-6.42 1.563-4.689 6.408-8.554 11.014-10.088 9.987-3.327 19.747-3.088 28.913 3.21-1.036-7.906-7.61-16.243-14.687-17.424-7.661-1.279-23.07-2.385-25.698 7.336 0-7.191 1.167-12.358 6.425-17.425 7.207-6.946 19.754-2.704 26.617 3.668-3.467-9.026-12.926-15.59-22.945-15.59-6.491 0-21.124 6.679-21.11 14.673-4.406-6.869 4.861-18.737 10.554-20.635 4.053-1.351 23.136-6.817 22.488 2.293 0.78201-19.66-44.793-17.586-41.305 0.917-1.735-3.72-2.157-15.338 0.91901-18.341 5.73-5.594 20.093-0.187 26.618 0.917-7.526-1.122-36.879-22.848-40.386-2.752-2.298-6.017-16.603-6.903-22.029-7.336-4.53-0.361-11.879 0.87-15.144 4.126-2.738 2.733-6.018 3.263-8.72 5.961-2.873 2.869-5.286 6.199-8.261 9.171-1.75 1.749-6.425 10.321-6.425 12.84 0 3.242-4.226 7.958-4.589 11.921 5.719-12.106 22.106-27.123 34.879-30.264 9.827-2.417 32.62-5.698 33.961 10.088-4.469-5.234-16.803-7.337-23.406-7.337-5.638 0-11.989 1.624-16.979 4.585-9.354 5.552-14.335 13.689-20.636 23.131-5.004 7.499-11.447 18.721-10.572 28.227 0.05899-6.951 11.092-17.881 15.603-22.928 4.131-4.622 13.031-15.591 19.734-15.591 7.7 0 16.076-5.499 24.322-1.375 3.94 1.97 8.991 0.513 12.85 3.21 2.97 2.076 8.167 6.631 8.26 10.088-8.419-7.466-28.015-7.554-37.631-2.751-6.123 3.058-11.89 9.098-14.685 15.591-2.142 4.974-0.901 15.182-6.426 17.425 5.975-1.813 12.652-4.838 16.522-10.088 0.90401-1.227 1.507-5.502 3.211-5.502 1.285 0 4.524-3.146 5.507-4.127 3.371-3.366 10.773-4.144 15.146-4.126 8.277 0.032997 11.837 3.572 17.438 9.17-3.571 0.69-8.32 0-11.933 0-6.324 0-9.49 1.88-14.685 4.586-4.614 2.403-8.143 3.552-11.933 7.337-2.535 2.531-0.918 11.114-0.918 14.673 0.894-0.891 2.033-1.726 2.756-2.751"/>
 </g>
 <path d="m169.8 77.061c-5.395 1.847-7.319 8.234-11.473 12.381-5.333 5.325-9.047 14.969-11.474 21.552-7.502 20.347 0.39999 36.892 8.261 55.026 0.71799 1.655 5.415 18.342 4.13 18.342-1.668 0-3.935 10.473-4.13 12.839-1.302 15.758 2.15 29.895 12.85 41.271 5.383 5.723 12.107 11.703 20.192 13.756-4.315-6.294-9.781-11.731-13.767-18.342-3.54-5.87-5.744-11.479-8.72-17.425-3.711-7.415-4.443-16.763-2.295-24.762 2.242-8.347 6.297-17.026 3.671-25.679-1.618-5.331-6.424-9.366-6.424-15.132 0-4.208-3.842-8.251-4.59-12.381-0.79799-4.402-1.214-10.227-0.91699-14.674 0.623-9.346 4.941-16.996 7.105-25.644 1.702-6.802 3.566-15.847 7.581-21.128" fill-rule="evenodd"/>
 <g fill="none" stroke="#000" stroke-linecap="square" stroke-miterlimit="10" stroke-width=".839">
  <path d="m169.8 77.061c-5.44 1.862-10.316 10.218-13.768 15.591-5.906 9.193-9.724 18.71-11.932 29.347-2.708 13.043 3.103 21.572 6.188 33.898 0.459 1.834 1.477 6.156 2.991 6.913 2.935 1.465 1.376 6.419 3.212 8.254 1.872 1.871 2.58 8.837 3.213 11.463"/>
  <path d="m159.7 182.53c-0.30899 4.152-3.672 5.978-3.672 11.005 0 6.391-0.533 12.813 0 19.259 1.401 16.943 14.827 35.043 32.125 39.436-1.908-2.783-3.744-5.458-5.507-8.253"/>
  <path d="m182.65 243.98c-6.17-6.167-11.766-13.437-14.685-21.094-3.319-8.706-7.38-18.349-5.507-28.43 1.445-7.78 10.441-23.499 3.213-30.723-1.001-1.001-3.213-6.706-3.213-7.796 0-4.128-3.739-10.92-5.507-14.674"/>
  <path d="m156.95 141.26c-4.517-10.419-0.996-24.445 1.598-34.815 0.81699-3.266 2.876-5.079 3.671-8.254 0.783-3.131 1.021-6.188 2.533-9.206 2.044-4.083 2.53-8.611 5.048-11.922"/>
  <path d="m169.8 77.061c-5.395 1.847-7.319 8.234-11.473 12.381-5.333 5.325-9.047 14.969-11.474 21.552-7.502 20.347 0.39999 36.892 8.261 55.026 0.71799 1.655 5.415 18.342 4.13 18.342-1.668 0-3.935 10.473-4.13 12.839-1.302 15.758 2.15 29.895 12.85 41.271 5.383 5.723 12.107 11.703 20.192 13.756-4.315-6.294-9.781-11.731-13.767-18.342-3.54-5.87-5.744-11.479-8.72-17.425-3.711-7.415-4.443-16.763-2.295-24.762 2.242-8.347 6.297-17.026 3.671-25.679-1.618-5.331-6.424-9.366-6.424-15.132 0-4.208-3.842-8.251-4.59-12.381-0.79799-4.402-1.214-10.227-0.91699-14.674 0.623-9.346 4.941-16.996 7.105-25.644 1.702-6.802 3.566-15.847 7.581-21.128"/>
 </g>
 <path d="m189.07 168.77c0 13.989 0.70801 31.537 14.686 38.519 7.229 3.61 12.902 3.668 21.11 3.668 6.086 0 16.311-11.63 17.44-15.591h0.916c-4.258 3.021-12.284 5.975-17.438 7.337-5.786 1.529-14.621 0.976-19.274-3.668-4.388-4.38-7.942-8.517-10.096-14.674-2.016-5.764-4.704-10.366-7.344-15.591" fill-rule="evenodd"/>
 <g fill="none" stroke="#000" stroke-linecap="square" stroke-miterlimit="10" stroke-width=".839">
  <path d="m189.07 168.77c0 13.989 0.70801 31.537 14.686 38.519 7.229 3.61 12.902 3.668 21.11 3.668 6.086 0 16.311-11.63 17.44-15.591h0.916c-5.185 3.678-17.399 9.06-23.863 8.254"/>
  <path d="m219.36 203.62c-8.191 0.49899-16.774-6.579-20.192-12.839-1.822-3.338-3.011-7.447-3.909-11.04-1.045-4.178-4.383-7.4-6.188-10.971"/>
  <path d="m189.07 168.77c0 13.989 0.70801 31.537 14.686 38.519 7.229 3.61 12.902 3.668 21.11 3.668 6.086 0 16.311-11.63 17.44-15.591h0.916c-4.258 3.021-12.284 5.975-17.438 7.337-5.786 1.529-14.621 0.976-19.274-3.668-4.388-4.38-7.942-8.517-10.096-14.674-2.016-5.764-4.704-10.366-7.344-15.591"/>
 </g>
 <path d="m195.5 158.68c-3.624 0.85901-11.015 3.473-11.015 8.254 0 4.548 1.078 4.386-2.753 7.336-3.207 2.469-5.857 3.004-8.26 6.419 0.12199-4.157 1.44-8.272 0.918-12.839-0.524-4.584-4.796-11.112-1.836-15.591 4.136-6.256 16.842 4.848 22.946 6.421m-8.261 0c-3.06-1.223-6.119-2.445-9.179-3.668v7.336c2.927-1.794 6.214-2.089 9.179-3.668" fill-rule="evenodd"/>
 <g fill="none" stroke="#000" stroke-linecap="square" stroke-miterlimit="10" stroke-width=".839">
  <path d="m195.5 158.68c-3.624 0.85901-11.015 3.473-11.015 8.254 0 4.548 1.078 4.386-2.753 7.336-3.207 2.469-5.857 3.004-8.26 6.419 0.12199-4.157 1.44-8.272 0.918-12.839-0.524-4.584-4.796-11.112-1.836-15.591 4.136-6.256 16.842 4.848 22.946 6.421"/>
  <path d="m195.5 158.68c-3.624 0.85901-11.015 3.473-11.015 8.254 0 4.548 1.078 4.386-2.753 7.336-3.207 2.469-5.857 3.004-8.26 6.419 0.12199-4.157 1.44-8.272 0.918-12.839-0.524-4.584-4.796-11.112-1.836-15.591 4.136-6.256 16.842 4.848 22.946 6.421"/>
  <path d="m187.24 158.68c-3.06-1.223-6.119-2.445-9.179-3.668v7.336c2.927-1.794 6.214-2.089 9.179-3.668"/>
  <path d="m187.24 158.68c-3.06-1.223-6.119-2.445-9.179-3.668v7.336c2.927-1.794 6.214-2.089 9.179-3.668"/>
 </g>
 <path d="m185.4 183.44c5.55-9.013-9.178-3.308-9.178 0 0-0.882-4.56 7.308-5.048 7.795-2.53 2.527-1.81 10.325-0.459 13.298 2.828-6.313 8.101-17.993 14.685-21.093" fill-rule="evenodd"/>
 <g fill="none" stroke="#000" stroke-linecap="square" stroke-miterlimit="10" stroke-width=".839">
  <path d="m185.4 183.44c5.55-9.013-9.178-3.308-9.178 0 0-0.882-4.56 7.308-5.048 7.795-2.53 2.527-1.81 10.325-0.459 13.298 2.828-6.313 8.101-17.993 14.685-21.093"/>
  <path d="m185.4 183.44c5.55-9.013-9.178-3.308-9.178 0 0-0.882-4.56 7.308-5.048 7.795-2.53 2.527-1.81 10.325-0.459 13.298 2.828-6.313 8.101-17.993 14.685-21.093"/>
 </g>
 <path d="m294.62 195.37c2.483 5.302 8.189 12.345 13.768 15.133 7.263 3.629 11.19 4.127 18.816 4.127 14.938 0 20.651-17.078 20.651-29.348-0.049988 4.623-4.285 8.861-7.343 11.922-3.871 3.875-7.467 6.42-13.309 6.42-11.374-1.5e-5 -23.521-0.67502-32.583-8.254" fill-rule="evenodd"/>
 <g fill="none" stroke="#000" stroke-linecap="square" stroke-miterlimit="10" stroke-width=".839">
  <path d="m294.62 195.37c2.483 5.302 8.189 12.345 13.768 15.133 7.263 3.629 11.19 4.127 18.816 4.127 14.938 0 20.651-17.078 20.651-29.348-0.072998 6.862-7.046 8.581-9.638 13.757-3.042 6.076-12.361 4.585-17.897 4.585"/>
  <path d="m320.32 203.62c-8.524 0-19.034-2.678-25.7-8.254"/>
  <path d="m294.62 195.37c2.483 5.302 8.189 12.345 13.768 15.133 7.263 3.629 11.19 4.127 18.816 4.127 14.938 0 20.651-17.078 20.651-29.348-0.049988 4.623-4.285 8.861-7.343 11.922-3.871 3.875-7.467 6.42-13.309 6.42-11.374-1.5e-5 -23.521-0.67502-32.583-8.254"/>
 </g>
 <path d="m248.73 210.96c-5.778 9.364 7.784 7.178 12.391 8.711 5.731 1.908 9.894 6.681 15.146 3.211 2.155-1.424 2.244-4.586 5.541-4.586 3.694 0 7.573-0.177 10.776-2.311 8.635-5.749 1.556-8.248 0.20398-16.032 0.14502 14.833-14.291 3.843-20.651 5.961-6.768 2.256-16.759 9.712-23.407 5.046" fill-rule="evenodd"/>
 <g fill="none" stroke="#000" stroke-linecap="square" stroke-miterlimit="10" stroke-width=".839">
  <path d="m248.73 210.96c-5.778 9.364 7.784 7.178 12.391 8.711 5.731 1.908 9.894 6.681 15.146 3.211 2.155-1.424 2.244-4.586 5.541-4.586 3.694 0 7.573-0.177 10.776-2.311 8.635-5.749 1.556-8.248 0.20398-16.032 0.107 11.056-9.977 7.315-16.521 6.42-7.354-1.006-14.983 3.864-22.028 6.419"/>
  <path d="m254.24 212.79c-2.023-0.14-4.006-0.77899-5.508-1.833"/>
  <path d="m248.73 210.96c-5.778 9.364 7.784 7.178 12.391 8.711 5.731 1.908 9.894 6.681 15.146 3.211 2.155-1.424 2.244-4.586 5.541-4.586 3.694 0 7.573-0.177 10.776-2.311 8.635-5.749 1.556-8.248 0.20398-16.032 0.14502 14.833-14.291 3.843-20.651 5.961-6.768 2.256-16.759 9.712-23.407 5.046"/>
 </g>
 <path d="m291.87 291.66c2.191-4.377 4.896-8.563 8.259-11.922 3.395-3.389 8.685-5.924 11.474-8.713 4.588-4.588 18.336-4.464 24.323-5.961 4.326-1.081 7.681-2.922 11.932-5.044 2.631-1.313 4.831-2.412 7.344-3.669 2.987-1.493 2.518-3.095 5.508-4.585 9.33-4.652 10.096-16.971 10.096-26.138 0.439 4.823 2.753 9.163 2.753 14.216 0 6.578-2.251 8.624-5.048 14.215-2.239 4.476-1.409 11.035-5.048 14.674-3.034 3.034-10.218 3.707-14.227 5.043-5.755 1.918-11.083 4.065-16.979 5.045-3.897 0.64697-8.043 0.64298-11.933 1.834-6.877 2.107-25.198 4.273-28.454 11.005" fill-rule="evenodd"/>
 <g fill="none" stroke="#000" stroke-linecap="square" stroke-miterlimit="10" stroke-width=".839">
  <path d="m291.87 291.66c4.257-8.503 11.078-15.912 19.273-20.176 7.224-3.758 15.116-2.509 22.029-5.962 3.652-1.824 8.104-0.30301 11.472-3.668 3.427-3.423 9.415-3.846 13.31-6.878 0.92999-0.724-0.784-1.443 0.918-2.294 1.224-0.61101 2.449-1.221 3.673-1.834 1.891-0.94699 2.549-3.921 4.129-5.502 3.459-3.458 4.131-8.751 4.131-13.299"/>
  <path d="m370.8 232.05v-6.419c0.78198 8.6 6.65 19.04-0.918 26.597-3.695 3.689-2.163 7.99-4.13 11.922-2.95 5.897-4.938 5.612-10.556 7.337-9.354 2.871-18.314 6.821-27.535 8.254-9.651 1.499-19.854 4.161-29.371 7.337"/>
  <path d="m298.3 287.08c-2.236 1.342-5.373 2.409-6.425 4.585"/>
  <path d="m291.87 291.66c2.191-4.377 4.896-8.563 8.259-11.922 3.395-3.389 8.685-5.924 11.474-8.713 4.588-4.588 18.336-4.464 24.323-5.961 4.326-1.081 7.681-2.922 11.932-5.044 2.631-1.313 4.831-2.412 7.344-3.669 2.987-1.493 2.518-3.095 5.508-4.585 9.33-4.652 10.096-16.971 10.096-26.138 0.439 4.823 2.753 9.163 2.753 14.216 0 6.578-2.251 8.624-5.048 14.215-2.239 4.476-1.409 11.035-5.048 14.674-3.034 3.034-10.218 3.707-14.227 5.043-5.755 1.918-11.083 4.065-16.979 5.045-3.897 0.64697-8.043 0.64298-11.933 1.834-6.877 2.107-25.198 4.273-28.454 11.005"/>
 </g>
 <path d="m270.76 324.68c1.538-2.111 6.069-12.839 7.342-12.839 1.68 0 3.514-4.048 5.508-5.045 2.155-1.077 4.377-1.729 6.424-2.75 9.734-4.859 22.095-2.005 32.585-5.504 9.555-3.188 21.546-3.969 29.829-9.629 4-2.733 8.15-7.415 11.015-11.005 2.805-3.515 5.792-10.966 9.179-12.84 0.43903 3.181-0.97699 11.123-2.295 13.757-3.277 6.549-3.924 13.554-9.637 19.259-7.656 7.644-11.767 16.263-17.915 25.476-3.66 5.483-8.516 11.204-12.374 16.71-4.111 5.867-8.5 11.723-12.851 17.426-3.79 4.968-8.016 10.762-12.392 15.133-3.52 3.516-4.471 7.882-7.801 11.463-2.283-3.292-9.574-2.75-13.769-2.75 1.788-3.281 5.013-5.986 7.344-9.172 2.966-4.053 5.829-9.497 9.177-12.84 4.031-4.024 5.896-9.552 10.098-13.756 2.32-2.322 4.344-7.104 6.425-10.088-10.238 0-20.558 2.24-30.289 4.584-7.663 1.846-17.696 5.881-22.946 11.923 2.103-4.483 10.509-13.044 14.686-15.132 6.348-3.174 11.953-11.463 19.734-11.463 5.877 0 18.147 2.495 23.406 0 2.732-1.297 10.513-15.173 10.096-18.343-7.979 6.673-22.366 4.683-32.127 5.504-9.173 0.771-22.508 4.469-28.452 11.921" fill-rule="evenodd"/>
 <g fill="none" stroke="#000" stroke-linecap="square" stroke-miterlimit="10" stroke-width=".839">
  <path d="m270.76 324.68c1.538-2.111 6.069-12.839 7.342-12.839 0.98398 0 8.659-6.46 11.014-7.337 9.335-3.476 19.237-3.944 29.373-5.503 21.007-3.23 41.168-9.954 51.398-30.265"/>
  <path d="m369.89 268.74c0.51099-1.714 1.396-3.138 2.754-3.668 0.444 3.215-1.242 5.362-1.836 8.253-0.99399 4.846-0.61002 9.01-2.754 13.758-1.93 4.272-4.949 8.427-8.261 11.922-3.133 3.307-5.006 6.217-7.343 10.088-2.853 4.727-6.896 10.339-10.538 15.796-2.222 3.33-5.847 6.469-8.261 10.088-2.434 3.648-4.813 8.561-8.736 10.802"/>
  <path d="m324.91 345.77c-1.029 4.093-4.93 8.758-7.343 11.921-2.508 3.287-5.356 7.185-8.261 10.089-5.188 5.188-7.338 11.566-11.932 16.507-2.283-3.292-9.574-2.75-13.769-2.75 1.788-3.281 5.013-5.986 7.344-9.172 2.966-4.053 5.829-9.497 9.177-12.84 4.031-4.024 5.896-9.552 10.098-13.756 2.32-2.322 4.344-7.104 6.425-10.088"/>
  <path d="m316.65 335.68c-10.238 0-20.558 2.24-30.289 4.584-7.663 1.846-17.696 5.881-22.946 11.923 1.849-3.941 6.185-7.272 9.179-10.089 3.812-3.586 7.524-7.047 11.933-10.088 9.79-6.755 17.57-6.418 29.37-6.418"/>
  <path d="m313.9 325.6c5.139 0 8.705 1.421 10.556-4.127 1.471-4.409 7.445-9.953 6.885-14.216-7.979 6.673-22.366 4.683-32.127 5.504-9.172 0.771-22.507 4.469-28.451 11.921"/>
  <path d="m270.76 324.68c1.538-2.111 6.069-12.839 7.342-12.839 1.68 0 3.514-4.048 5.508-5.045 2.155-1.077 4.377-1.729 6.424-2.75 9.734-4.859 22.095-2.005 32.585-5.504 9.555-3.188 21.546-3.969 29.829-9.629 4-2.733 8.15-7.415 11.015-11.005 2.805-3.515 5.792-10.966 9.179-12.84 0.43903 3.181-0.97699 11.123-2.295 13.757-3.277 6.549-3.924 13.554-9.637 19.259-7.656 7.644-11.767 16.263-17.915 25.476-3.66 5.483-8.516 11.204-12.374 16.71-4.111 5.867-8.5 11.723-12.851 17.426-3.79 4.968-8.016 10.762-12.392 15.133-3.52 3.516-4.471 7.882-7.801 11.463-2.283-3.292-9.574-2.75-13.769-2.75 1.788-3.281 5.013-5.986 7.344-9.172 2.966-4.053 5.829-9.497 9.177-12.84 4.031-4.024 5.896-9.552 10.098-13.756 2.32-2.322 4.344-7.104 6.425-10.088-10.238 0-20.558 2.24-30.289 4.584-7.663 1.846-17.696 5.881-22.946 11.923 2.103-4.483 10.509-13.044 14.686-15.132 6.348-3.174 11.953-11.463 19.734-11.463 5.877 0 18.147 2.495 23.406 0 2.732-1.297 10.513-15.173 10.096-18.343-7.979 6.673-22.366 4.683-32.127 5.504-9.173 0.771-22.508 4.469-28.452 11.921"/>
 </g>
 <path d="m248.73 251.31c0.49901 5.991 7.144 9.824 11.933 12.84v-10.088c0.952 3.355 2.572 6.976 4.13 10.087 0.95599 1.907 7.462 0.91699 9.638 0.91699 7.83 0 8.856-4.346 10.097-11.923-0.090027 8.067 2.283 9.118 7.343 3.669 6.213-6.69 2.696-5.605-0.918-11.922 0.345 4.36-2.408 7.13-2.754 11.004-0.85101-3.881-3.233-7.335-3.671-11.004-3.658 1.417-6.451-0.043991-10.097 0-1.909 0.022995-4.637 0.683-7.344 0.91701-1.659 0.144-8.317-1.676-9.178-0.91701-1.322 1.166 0.14999 9.627 0.91699 11.004-2.699-2.438-4.819-5.924-6.423-9.169-1.638 1.265-2.689 3.562-3.673 4.585m-22.028-22.012c3.671 5.189 9.076 7.615 14.687 11.005 4.937 2.982 7.416 2.425 13.309 0.45902 7.044-2.35 13.662-1.775 20.651-2.292 3.121-0.23 5.952-1.197 9.179-0.918 2.807 0.243 5.88 2.751 8.26 2.751 6.462 0 12.677-2.313 18.356-4.584 3.44-1.376 11.794-5.225 13.31-8.254 0.99799-1.995 5.313-4.403 6.885-5.504 3.185-2.23 5.335-4.778 8.464-6.86 3.372-2.245 9.442-6.809 10.811-10.564 0 4.307 0.56497 12.225-1.836 15.59 6.068-2.207 6.425-16.348 6.425-22.01 1.759 1.36 2.729 3.286 2.753 5.502 2.81-5.017 0.939-15.099-2.753-19.259 2.101 0.989 7.402 8.705 8.261 11.005 4.482-5.81-5.904-18.42-11.015-21.093 3.564-0.518 10.749 3.588 12.851 6.419-2.426-7.035-6.477-19.515-13.769-22.928 3.717-0.375 7.217 2.773 10.098 4.586-2.066-4.122-4.35-7.435-6.868-11.208-2.374-3.558-8.367-4.387-10.573-8.05-1.281-2.128-0.40298-7.719 4.591-6.42 3.088 0.80299 7.719 7.713 10.096 10.088 6.187 6.18 6.73 11.619 10.556 19.26 2.215 4.424 1.213 9.597 2.754 14.215 1.632 4.89 2.71 9.912 2.294 15.132-0.70001 8.786-5.956 16.021-8.719 24.304-2.146 6.437-7.701 9.106-13.31 13.298-6.989 5.223-13.576 11.32-21.109 16.507-4.063 2.797-7.726 6.446-11.933 9.171-2.433 1.575-6.248 2.327-8.976 4.146-7.186 4.792-12.993 10.672-18.56 16.949-6.503 7.335-13.464 15.902-17.898 24.762-1.402 2.802-2.333 4.434-3.212 7.337-1.601 5.286-5.059 9.66-6.885 15.133-3.053 9.149-11.28 17.692-13.308 27.054-0.47099-4.39 0.91699-9.204 0.91699-13.758 0-5.218-0.91699-10.588-0.91699-15.589 0-9.504-3.248-6.213-10.097-9.63-4.487-2.238-14.282-1.486-16.981-6.879-0.847-1.692-3.375-2.374-5.048-3.21-2.313-1.155-1.51-4.423-3.672-5.502-4.86-2.43-3.082-9.937-6.424-13.299 3.324 1.695 5.429 5.006 9.178 6.879 3.96 1.978 7.788 3.549 11.933 5.043 6.647 2.396 12.508 5.542 19.274 6.421-1.984-3.938-2.746-8.233-4.13-12.382-0.67601-2.024-1.107-5.118-2.294-6.877-1.164-1.727-0.091995-0.444-1.836-1.836-4.728-3.771-14.601-4.861-20.652-6.877-7.678-2.558-15.019-6.539-22.487-9.629-4.999-2.067-12.225-3.883-15.604-7.338 4.698 4.326 18.226 5.327 24.782 6.419 7.801 1.3 17.987 2.16 24.782 5.504-9.411-9.403-21.393-14.148-31.207-22.928-10.401-9.304-24.689-20.248-25.699-34.851 10.525 12.352 22.376 24.495 37.632 33.018-1.17-8.534-12.188-16.669-18.358-22.929 6.919 6.121 19.827 11.754 28.453 12.839-3.489-10.452 1.597-14.438 8.262-21.094 6.398-6.388 13.321-11.73 18.356-19.259-1.703 2.754-1.2 6.841-3.229 9.885-1.892 2.836-4.688 4.735-6.424 7.337-3.193 4.781-14.422 9.013-12.377 15.793m32.124 44.02c2.572 7.718 4.59 17.408 4.59 25.68 2.59-9.323 14.902-17.738 21.111-24.762-8.665 0-17.145-0.918-25.701-0.918" fill-rule="evenodd"/>
 <g fill="none" stroke="#000" stroke-linecap="square" stroke-miterlimit="10" stroke-width=".839">
  <path d="m248.73 251.31c0.49901 5.991 7.144 9.824 11.933 12.84v-10.088c0.952 3.355 2.572 6.976 4.13 10.087 0.95599 1.907 7.462 0.91699 9.638 0.91699 7.83 0 8.856-4.346 10.097-11.923-0.090027 8.067 2.283 9.118 7.343 3.669 6.213-6.69 2.696-5.605-0.918-11.922 0.345 4.36-2.408 7.13-2.754 11.004-0.85101-3.881-3.233-7.335-3.671-11.004-2.435 0.942-4.99 1.09-7.344 0"/>
  <path d="m277.18 244.89c-4.351-1.229-8.732 0.91701-13.768 0.91701-4.882 0-3.776-2.421-5.507 1.832-0.82602 2.029-0.093994 6.438 0.91699 8.255-2.699-2.438-4.819-5.924-6.423-9.169-1.639 1.266-2.689 3.563-3.673 4.585"/>
  <path d="m248.73 251.31c0.49901 5.991 7.144 9.824 11.933 12.84v-10.088c0.952 3.355 2.572 6.976 4.13 10.087 0.95599 1.907 7.462 0.91699 9.638 0.91699 7.83 0 8.856-4.346 10.097-11.923-0.090027 8.067 2.283 9.118 7.343 3.669 6.213-6.69 2.696-5.605-0.918-11.922 0.345 4.36-2.408 7.13-2.754 11.004-0.85101-3.881-3.233-7.335-3.671-11.004-3.658 1.417-6.451-0.043991-10.097 0-1.909 0.022995-4.637 0.683-7.344 0.91701-1.659 0.144-8.317-1.676-9.178-0.91701-1.322 1.166 0.14999 9.627 0.91699 11.004-2.699-2.438-4.819-5.924-6.423-9.169-1.638 1.265-2.689 3.562-3.673 4.585"/>
  <path d="m334.09 219.21c4.135-0.901 14.964-10.396 16.522-14.673 0 4.307 0.565 12.225-1.836 15.59 6.068-2.207 6.425-16.348 6.425-22.01 1.759 1.36 2.729 3.286 2.753 5.502 2.81-5.017 0.939-15.099-2.753-19.259 2.101 0.989 7.402 8.705 8.261 11.005 2.242-2.906-0.228-9.787-2.754-11.922"/>
  <path d="m360.71 183.44c-2.223-4.163-4.02-6.953-8.261-9.171 3.564-0.518 10.749 3.588 12.851 6.419-2.426-7.035-6.477-19.515-13.769-22.928 3.717-0.375 7.217 2.773 10.098 4.586-4.475-8.927-9.189-13.078-16.867-18.829-2.393-1.792-1.362-6.85 2.64-6.85 3.696 0 7.938 6.555 10.555 9.171"/>
  <path d="m357.95 145.84c6.654 6.018 10.695 14.921 12.851 23.845 2.193 9.082 5.948 22.902 2.753 32.099-2.966 8.535-6.203 18.898-12.85 24.762-7.44 6.564-14.701 12.848-22.946 18.343"/>
  <path d="m337.76 244.89c-8.772 4.406-16.738 11.688-24.782 16.507-8.444 5.059-14.818 11.247-21.109 18.343-7.05 7.951-11.38 18.716-18.816 26.137-2.698 2.692-1.894 7.114-3.213 10.546-1.414 3.678-6.175 14.188-9.178 16.51"/>
  <path d="m260.66 332.93c-0.88501 7.91-8.474 13.603-10.096 21.093-0.911-8.488 3.302-18.524 0.45801-27.054-0.757-2.272 0.72-6.854-0.45801-8.714-1.399-2.209-5.295-0.70801-6.886-2.293-3.023-3.015-12.088-2.598-16.062-4.585-2.727-1.363-6.216-3.878-8.261-5.961-3.146-3.206-4.629-8.201-8.261-11.005"/>
  <path d="m211.1 294.42c-1.631-2.839-0.215-5.701-2.753-8.255 3.324 1.695 5.429 5.006 9.178 6.879 3.96 1.978 7.788 3.549 11.933 5.043 6.647 2.396 12.508 5.542 19.274 6.421-2.925-5.805-2.831-13.931-6.424-19.259-1.185-1.757-6.168-4.586-9.639-4.586-4.707 0-11.69-3.576-16.063-5.503-5.536-2.439-10.724-4.421-16.521-6.42"/>
  <path d="m200.08 268.74c-5.583-4.452-13.979-4.693-18.357-9.171 4.698 4.326 18.226 5.327 24.782 6.419 7.801 1.3 17.987 2.16 24.782 5.504-3.018-3.015-5.762-5.284-9.18-7.336-2.526-1.517-4.801-3.774-7.343-5.046-3.25-1.626-5.52-5.323-9.178-5.961"/>
  <path d="m205.59 253.14c-10.864-12.64-29.938-21.107-31.206-39.436 10.525 12.352 22.376 24.495 37.632 33.018-0.791-5.773-6.6-12.711-11.933-15.592"/>
  <path d="m200.08 231.14c-2.575-2.209-4.102-4.979-6.425-7.337 6.919 6.121 19.827 11.754 28.453 12.839-3.489-10.452 1.597-14.438 8.262-21.094 6.398-6.388 13.321-11.73 18.356-19.259-1.462 2.363-1.766 6.213-2.754 9.171"/>
  <path d="m245.98 205.46c-2.85 4.373-6.141 8.498-10.096 11.922-3.474 3.007-10.888 6.256-9.179 11.922"/>
  <path d="m226.7 229.3c3.671 5.189 9.076 7.615 14.687 11.005 4.937 2.982 7.416 2.425 13.309 0.45902 7.044-2.35 13.662-1.775 20.651-2.292 3.121-0.23 5.952-1.197 9.179-0.918 2.807 0.243 5.88 2.751 8.26 2.751 6.462 0 12.677-2.313 18.356-4.584 3.44-1.376 11.794-5.225 13.31-8.254 0.99799-1.995 5.313-4.403 6.885-5.504 3.185-2.23 5.335-4.778 8.464-6.86 3.372-2.245 9.442-6.809 10.811-10.564 0 4.307 0.56497 12.225-1.836 15.59 6.068-2.207 6.425-16.348 6.425-22.01 1.759 1.36 2.729 3.286 2.753 5.502 2.81-5.017 0.939-15.099-2.753-19.259 2.101 0.989 7.402 8.705 8.261 11.005 4.482-5.81-5.904-18.42-11.015-21.093 3.564-0.518 10.749 3.588 12.851 6.419-2.426-7.035-6.477-19.515-13.769-22.928 3.717-0.375 7.217 2.773 10.098 4.586-2.066-4.122-4.35-7.435-6.868-11.208-2.374-3.558-8.367-4.387-10.573-8.05-1.281-2.128-0.40298-7.719 4.591-6.42 3.088 0.80299 7.719 7.713 10.096 10.088 6.187 6.18 6.73 11.619 10.556 19.26 2.215 4.424 1.213 9.597 2.754 14.215 1.632 4.89 2.71 9.912 2.294 15.132-0.70001 8.786-5.956 16.021-8.719 24.304-2.146 6.437-7.701 9.106-13.31 13.298-6.989 5.223-13.576 11.32-21.109 16.507-4.063 2.797-7.726 6.446-11.933 9.171-2.433 1.575-6.248 2.327-8.976 4.146-7.186 4.792-12.993 10.672-18.56 16.949-6.503 7.335-13.464 15.902-17.898 24.762-1.402 2.802-2.333 4.434-3.212 7.337-1.601 5.286-5.059 9.66-6.885 15.133-3.053 9.149-11.28 17.692-13.308 27.054-0.47099-4.39 0.91699-9.204 0.91699-13.758 0-5.218-0.91699-10.588-0.91699-15.589 0-9.504-3.248-6.213-10.097-9.63-4.487-2.238-14.282-1.486-16.981-6.879-0.847-1.692-3.375-2.374-5.048-3.21-2.313-1.155-1.51-4.423-3.672-5.502-4.86-2.43-3.082-9.937-6.424-13.299 3.324 1.695 5.429 5.006 9.178 6.879 3.96 1.978 7.788 3.549 11.933 5.043 6.647 2.396 12.508 5.542 19.274 6.421-1.984-3.938-2.746-8.233-4.13-12.382-0.67601-2.024-1.107-5.118-2.294-6.877-1.164-1.727-0.091995-0.444-1.836-1.836-4.728-3.771-14.601-4.861-20.652-6.877-7.678-2.558-15.019-6.539-22.487-9.629-4.999-2.067-12.225-3.883-15.604-7.338 4.698 4.326 18.226 5.327 24.782 6.419 7.801 1.3 17.987 2.16 24.782 5.504-9.411-9.403-21.393-14.148-31.207-22.928-10.401-9.304-24.689-20.248-25.699-34.851 10.525 12.352 22.376 24.495 37.632 33.018-1.17-8.534-12.188-16.669-18.358-22.929 6.919 6.121 19.827 11.754 28.453 12.839-3.489-10.452 1.597-14.438 8.262-21.094 6.398-6.388 13.321-11.73 18.356-19.259-1.703 2.754-1.2 6.841-3.229 9.885-1.892 2.836-4.688 4.735-6.424 7.337-3.193 4.781-14.422 9.013-12.377 15.793"/>
  <path d="m258.83 273.32c2.572 7.718 4.59 17.408 4.59 25.68 2.59-9.323 14.902-17.738 21.111-24.762-8.665 0-17.145-0.918-25.701-0.918"/>
  <path d="m258.83 273.32c2.572 7.718 4.59 17.408 4.59 25.68 2.59-9.323 14.902-17.738 21.111-24.762-8.665 0-17.145-0.918-25.701-0.918"/>
 </g>
 <path d="m218.44 221.05c-3.979-11.786-24.489-1.417-27.536-12.84-9.436 21.783 24.746 8.171 25.7 18.342 1.177-1.656 1.816-3.531 1.836-5.502" fill-rule="evenodd"/>
 <g fill="none" stroke="#000" stroke-linecap="square" stroke-miterlimit="10">
  <g stroke-width=".839">
   <path d="m218.44 221.05c-3.979-11.786-24.489-1.417-27.536-12.84-9.436 21.783 24.746 8.171 25.7 18.342 1.177-1.656 1.816-3.531 1.836-5.502"/>
   <path d="m218.44 221.05c-3.979-11.786-24.489-1.417-27.536-12.84-9.436 21.783 24.746 8.171 25.7 18.342 1.177-1.656 1.816-3.531 1.836-5.502"/>
  </g>
  <g stroke-width="2.517">
   <path d="m294.62 219.21c11.292 0 22.782 4.738 33.961 3.669-12.238 0.306-24.476 0.61099-36.714 0.91699 8.993 1.497 17.273 4.049 25.699 8.253-9.79-1.528-19.581-3.057-29.371-4.585 6.578 1.676 12.052 9.177 17.439 10.088-11.015-4.28-22.028-8.56-33.043-12.84v13.758c-4.8-3.197-10.381-8.77-15.604-8.254-4.333 0.42799-12.715 5.946-14.684 9.17"/>
   <path d="m242.31 239.39c-0.77499 0.5-0.787 1.071-1.836 0.91699 4.283-4.891 8.567-9.782 12.851-14.673-7.396 0.67099-15.358 6.148-21.112 10.089 6.425-4.586 12.851-9.172 19.275-13.758-7.876 1.529-16.317 4.514-23.864 5.503 22.334-2.751 44.669-5.503 67.003-8.254"/>
   <path d="m294.62 219.21c11.292 0 22.782 4.738 33.961 3.669-12.238 0.306-24.476 0.61099-36.714 0.91699 8.993 1.497 17.273 4.049 25.699 8.253-9.79-1.528-19.581-3.057-29.371-4.585 6.578 1.676 12.052 9.177 17.439 10.088-11.015-4.28-22.028-8.56-33.043-12.84v13.758c-3.399-2.265-6.799-4.529-10.199-6.794-4.031-2.686-3.106-1.711-7.239-0.543-6.026 1.703-9.997 6.676-14.686 9.17 4.283-4.891 8.567-9.782 12.851-14.673-7.396 0.671-15.358 6.148-21.112 10.089 6.425-4.586 12.851-9.172 19.275-13.758-7.876 1.529-16.317 4.514-23.864 5.503 22.334-2.751 44.669-5.503 67.003-8.254"/>
  </g>
 </g>
 <path d="m282.69 386.12c8.299 0 18.757 0.89999 24.781 7.337 6.732 7.193 10.693 15.559 13.77 24.761-3.27-4.093-11.424-5.604-16.523-6.418-7.261-1.158-6.521 0.70599-5.508-7.337 0.91302-7.245-1.358-11.081-9.177-12.84-2.858-0.64398-18.297-2.003-7.343-5.503" fill-rule="evenodd"/>
 <g fill="none" stroke="#000" stroke-linecap="square" stroke-miterlimit="10" stroke-width=".839">
  <path d="m282.69 386.12c8.299 0 18.757 0.89999 24.781 7.337 6.732 7.193 10.693 15.559 13.77 24.761-3.535-4.427-22.947-5.306-22.947-8.254 0-5.074 3.482-9.078 0-13.755-3.833-5.147-10.241-3.256-15.604-5.504"/>
  <path d="m282.69 390.71c-5.468 1.227-3.545-3.452 0-4.585"/>
  <path d="m282.69 386.12c8.299 0 18.757 0.89999 24.781 7.337 6.732 7.193 10.693 15.559 13.77 24.761-3.27-4.093-11.424-5.604-16.523-6.418-7.261-1.158-6.521 0.70599-5.508-7.337 0.91302-7.245-1.358-11.081-9.177-12.84-2.858-0.64398-18.297-2.003-7.343-5.503"/>
 </g>
 <path d="m262.5 389.79c7.422 0 15.043 2.59 19.274 7.337 4.697 5.269 11.811 14.688 11.015 22.928-4.039-5.417-19.315-6.799-25.701-6.42 2.313-4.327 6.816-9.636 4.59-14.673-1.934-4.374-10.448-3.908-9.178-9.172" fill-rule="evenodd"/>
 <g fill="none" stroke="#000" stroke-linecap="square" stroke-miterlimit="10" stroke-width=".839">
  <path d="m262.5 389.79c7.422 0 15.043 2.59 19.274 7.337 4.697 5.269 11.811 14.688 11.015 22.928-4.039-5.417-19.315-6.799-25.701-6.42 2.313-4.327 6.816-9.636 4.59-14.673-1.934-4.374-10.448-3.908-9.178-9.172"/>
  <path d="m262.5 389.79c7.422 0 15.043 2.59 19.274 7.337 4.697 5.269 11.811 14.688 11.015 22.928-4.039-5.417-19.315-6.799-25.701-6.42 2.313-4.327 6.816-9.636 4.59-14.673-1.934-4.374-10.448-3.908-9.178-9.172"/>
 </g>
 <path d="m236.8 376.95c3.438-5.019 6.904-13.836 11.015-17.425v-0.91702c-4.373-0.728-9.131-1.532-13.769-0.91699-5.786 0.768-8.188 4.381-12.851 7.337-6.105 3.87-16.902 6.913-16.52 16.509 3.896-2.672 12.266-4.587 16.979-4.587 3.199 0 15.155 4.63 15.146 0" fill-rule="evenodd"/>
 <g fill="none" stroke="#000" stroke-linecap="square" stroke-miterlimit="10" stroke-width=".839">
  <path d="m236.8 376.95c3.438-5.019 6.904-13.836 11.015-17.425v-0.91702c-4.373-0.728-9.131-1.532-13.769-0.91699-5.786 0.768-8.188 4.381-12.851 7.337-6.105 3.87-16.902 6.913-16.52 16.509 3.896-2.672 12.266-4.587 16.979-4.587 3.199 0 15.155 4.63 15.146 0"/>
  <path d="m236.8 376.95c3.438-5.019 6.904-13.836 11.015-17.425v-0.91702c-4.373-0.728-9.131-1.532-13.769-0.91699-5.786 0.768-8.188 4.381-12.851 7.337-6.105 3.87-16.902 6.913-16.52 16.509 3.896-2.672 12.266-4.587 16.979-4.587 3.199 0 15.155 4.63 15.146 0"/>
 </g>
 <path d="m224.87 349.44c-6.33-4.118-13.934-0.41901-19.274 3.67-2.033 1.557 0.10301 2.751-3.212 2.751-1.598 0-3.97 1.673-5.048 2.751-2.851 2.849-8.197 1.966-8.262 8.255 6.668 0 19.299 3.524 24.782-0.918 3.759-3.046 1.474-6.42 7.343-6.42 3.715 0 2.96-7.408 3.671-10.089" fill-rule="evenodd"/>
 <g fill="none" stroke="#000" stroke-linecap="square" stroke-miterlimit="10" stroke-width=".839">
  <path d="m224.87 349.44c-6.33-4.118-13.934-0.41901-19.274 3.67-2.033 1.557 0.10301 2.751-3.212 2.751-1.598 0-3.97 1.673-5.048 2.751-2.851 2.849-8.197 1.966-8.262 8.255 6.668 0 19.299 3.524 24.782-0.918 3.759-3.046 1.474-6.42 7.343-6.42 3.715 0 2.96-7.408 3.671-10.089"/>
  <path d="m224.87 349.44c-6.33-4.118-13.934-0.41901-19.274 3.67-2.033 1.557 0.10301 2.751-3.212 2.751-1.598 0-3.97 1.673-5.048 2.751-2.851 2.849-8.197 1.966-8.262 8.255 6.668 0 19.299 3.524 24.782-0.918 3.759-3.046 1.474-6.42 7.343-6.42 3.715 0 2.96-7.408 3.671-10.089"/>
 </g>
 <path d="m174.39 312.76c5.443-5.442 10.953-9.004 18.356-11.007 3.656-0.98901 6.818-1.44 9.893 1.631 1.745 1.743 4.935 2.708 6.187 4.586 1.122 1.682 1.702 3.118 3.196 3.872v0.918c-7.071 0-14.287 0.81799-21.078 2.513-5.974 1.49-11.156-1.985-16.554-2.513" fill-rule="evenodd"/>
 <g fill="none" stroke="#000" stroke-linecap="square" stroke-miterlimit="10" stroke-width=".839">
  <path d="m174.39 312.76c5.443-5.442 10.953-9.004 18.356-11.007 3.656-0.98901 6.818-1.44 9.893 1.631 1.745 1.743 4.935 2.708 6.187 4.586 1.122 1.682 1.702 3.118 3.196 3.872v0.918c-7.071 0-14.287 0.81799-21.078 2.513-5.974 1.49-11.156-1.985-16.554-2.513"/>
  <path d="m174.39 312.76c5.443-5.442 10.953-9.004 18.356-11.007 3.656-0.98901 6.818-1.44 9.893 1.631 1.745 1.743 4.935 2.708 6.187 4.586 1.122 1.682 1.702 3.118 3.196 3.872v0.918c-7.071 0-14.287 0.81799-21.078 2.513-5.974 1.49-11.156-1.985-16.554-2.513"/>
 </g>
 <path d="m186.32 190.78c-12.89 5.023-6.376 19.521-2.754 28.43 1.556-4.118-1.224-9.069 2.295-13.756 3.47-4.623 5.07-9.715 0.459-14.674" fill-rule="evenodd"/>
 <g fill="none" stroke="#000" stroke-linecap="square" stroke-miterlimit="10">
  <g stroke-width=".839">
   <path d="m186.32 190.78c-12.89 5.023-6.376 19.521-2.754 28.43 1.556-4.118-1.224-9.069 2.295-13.756 3.47-4.623 5.07-9.715 0.459-14.674"/>
   <path d="m186.32 190.78c-12.89 5.023-6.376 19.521-2.754 28.43 1.556-4.118-1.224-9.069 2.295-13.756 3.47-4.623 5.07-9.715 0.459-14.674"/>
  </g>
  <g stroke-width="2.517">
   <path d="m132.16 151.35c10.238 11.011 15.502 30.456 10.096 45.854"/>
   <path d="m132.16 151.35c10.238 11.011 15.502 30.456 10.096 45.854"/>
  </g>
 </g>
 <path d="m89.943 93.568c2.264-2.636 15.842-13.519 12.39-16.966-4.461-4.454-7.563-7.972-14.226-9.629-4.94-1.229-11.778-1.913-16.521 0.458-5.693 2.846-10.045 10.496-14.685 15.132 7.453-4.148 33.97-1.255 33.042 11.005m-51.4 88.96c-3.102-6.588-2.251-18.342-11.473-18.342-7.661 0-12.328-0.062012-18.356 5.961-3.743 3.739-9.268 9.451-6.425 15.132 3.859 7.713 6.278 14.605 11.473 21.093 0-6.645-0.756-14.842 4.13-19.718 6.366-6.351 11.647-7.867 20.651-4.126m18.358 44.021c-6.201 0.964-15.737-1.771-21.11-4.586-3.968-2.078-5.688-2.649-6.425-7.336-0.567-3.608-0.21-7.832 1.376-11.006 2.526-5.054 4.448-13.544 10.556-14.673 2.683-0.496 7.115 1.453 9.637 2.292 2.687 0.89499 5.869 0.45799 8.72 0.45799-11.801 6.14-13.421 25.699-2.754 34.851m45.891-8.254c-6.435 2.625-14.043 2.894-20.192 5.961-8.336 4.159-9.269-8.894-11.474-13.298-6.865-13.714 10.68-25.658 21.57-28.43-9.157 7.514 3.167 31.615 10.096 35.767m19.276-56.86c-4.824 2.731-13.357 7.376-17.439 11.923-4.053 4.515-2.531 12.11 0 17.424 2.938 6.169 8.964 15.195 15.604 18.342 7.007 3.321 12.787-6.064 19.274-9.171-4.657-5.475-9.981-9.863-13.308-16.507-2.982-5.956-7.96-15.14-4.131-22.011m-82.606-6.42c2.274-6.025 11.736-14.147 8.72-20.177-3.155-6.305-11.065-8.796-17.898-8.253-6.316 0.502-13.135 1.631-17.439 5.502-5.252 4.724-10.552 14.976-11.932 22.01 3.378-4.23 13.917-9.17 19.274-9.17 8.116 0 15.145 2.802 19.275 10.088m-11.932-39.435c1.801-4.864 6.999-8.278 10.096-11.922 4.156-4.891 6.115-7.337 12.85-7.337 5.991 0 8.584 0.619 13.768 3.209 5.022 2.51 5.96 7.252 10.096 10.547-2.57 2.566-7.725 10.938-11.014 11.922-2.539 0.759-8.961-6.349-13.31-7.796-7.224-2.403-15.803-1.161-22.486 1.377m52.317-62.363c1.49-3.551 0.236-13.417 3.671-15.132 4.044-2.02 8.106-9.629 12.85-9.629 5.278 0 9.61-2.076 14.686 0.458 5.457 2.725 5.507 14.583 5.507 19.718-0.402-12.462-31.993-0.941-36.714 4.585m23.864-38.519c-1.924-11.032-14.078-12.249-22.028-8.254-3.836 1.928-7.369 4.316-10.097 8.254-4.227 6.1 0.488 6.33 3.672 11.922 5.2-8.656 18.098-17.72 28.453-11.922" fill-rule="evenodd"/>
 <g fill="none" stroke="#000" stroke-linecap="square" stroke-miterlimit="10" stroke-width=".839">
  <path d="m89.943 93.568c2.264-2.636 15.842-13.519 12.39-16.966-4.461-4.454-7.563-7.972-14.226-9.629-4.94-1.229-11.778-1.913-16.521 0.458-5.693 2.846-10.045 10.496-14.685 15.132 8.598-4.786 25.152-0.758 31.207 6.42"/>
  <path d="m88.107 88.984c1.384 1.173 2.032 2.786 1.836 4.584"/>
  <path d="m89.943 93.568c2.264-2.636 15.842-13.519 12.39-16.966-4.461-4.454-7.563-7.972-14.226-9.629-4.94-1.229-11.778-1.913-16.521 0.458-5.693 2.846-10.045 10.496-14.685 15.132 7.453-4.148 33.97-1.255 33.042 11.005"/>
  <path d="m38.543 182.53c-3.102-6.588-2.251-18.342-11.473-18.342-7.661 0-12.328-0.062012-18.356 5.961-3.743 3.739-9.268 9.451-6.425 15.132 3.859 7.713 6.278 14.605 11.473 21.093 0-4.846-0.733-12.703 1.836-16.507"/>
  <path d="m15.598 189.86c6.654-8.303 11.982-11.892 22.946-7.337"/>
  <path d="m38.543 182.53c-3.102-6.588-2.251-18.342-11.473-18.342-7.661 0-12.328-0.062012-18.356 5.961-3.743 3.739-9.268 9.451-6.425 15.132 3.859 7.713 6.278 14.605 11.473 21.093 0-6.645-0.756-14.842 4.13-19.718 6.366-6.351 11.647-7.867 20.651-4.126"/>
  <path d="m56.901 226.55c-6.201 0.964-15.737-1.771-21.11-4.586-3.968-2.078-5.688-2.649-6.425-7.336-0.567-3.608-0.21-7.832 1.376-11.006 2.526-5.054 4.448-13.544 10.556-14.673 2.683-0.496 7.115 1.453 9.637 2.292 2.687 0.89499 5.869 0.45799 8.72 0.45799-6.35 3.304-7.842 9.75-10.097 16.508"/>
  <path d="m49.558 208.21c0 7.274 1.52 13.346 7.343 18.342"/>
  <path d="m56.901 226.55c-6.201 0.964-15.737-1.771-21.11-4.586-3.968-2.078-5.688-2.649-6.425-7.336-0.567-3.608-0.21-7.832 1.376-11.006 2.526-5.054 4.448-13.544 10.556-14.673 2.683-0.496 7.115 1.453 9.637 2.292 2.687 0.89499 5.869 0.45799 8.72 0.45799-11.801 6.14-13.421 25.699-2.754 34.851"/>
  <path d="m102.79 218.3c-6.435 2.625-14.043 2.894-20.192 5.961-8.336 4.159-9.269-8.894-11.474-13.298-6.865-13.714 10.68-25.658 21.57-28.43-4.584 3.761-1.836 9.795-1.836 14.674 0 3.441 4.556 14.792 7.343 16.507"/>
  <path d="m98.204 213.71c1.461 1.825 2.846 3.541 4.588 4.586"/>
  <path d="m102.79 218.3c-6.435 2.625-14.043 2.894-20.192 5.961-8.336 4.159-9.269-8.894-11.474-13.298-6.865-13.714 10.68-25.658 21.57-28.43-9.157 7.514 3.167 31.615 10.096 35.767"/>
  <path d="m122.07 161.44c-4.824 2.731-13.357 7.376-17.439 11.923-4.053 4.515-2.531 12.11 0 17.424 2.938 6.169 8.964 15.195 15.604 18.342 7.007 3.321 12.787-6.064 19.274-9.171-3.146-3.698-6.481-5.946-9.177-10.087-2.561-3.934-8.517-10.979-8.261-15.591"/>
  <path d="m122.07 174.27c-0.12-4.072-2.302-8.708 0-12.839"/>
  <path d="m122.07 161.44c-4.824 2.731-13.357 7.376-17.439 11.923-4.053 4.515-2.531 12.11 0 17.424 2.938 6.169 8.964 15.195 15.604 18.342 7.007 3.321 12.787-6.064 19.274-9.171-4.657-5.475-9.981-9.863-13.308-16.507-2.982-5.956-7.96-15.14-4.131-22.011"/>
  <path d="m39.462 155.02c2.274-6.025 11.736-14.147 8.72-20.177-3.155-6.305-11.065-8.796-17.898-8.253-6.316 0.502-13.135 1.631-17.439 5.502-5.252 4.724-10.552 14.976-11.932 22.01 3.333-4.174 13.185-8.619 18.357-9.17"/>
  <path d="m19.269 144.93c8.524 0 15.807 2.351 20.193 10.088"/>
  <path d="m39.462 155.02c2.274-6.025 11.736-14.147 8.72-20.177-3.155-6.305-11.065-8.796-17.898-8.253-6.316 0.502-13.135 1.631-17.439 5.502-5.252 4.724-10.552 14.976-11.932 22.01 3.378-4.23 13.917-9.17 19.274-9.17 8.116 0 15.145 2.802 19.275 10.088"/>
  <path d="m27.53 115.58c1.801-4.864 6.999-8.278 10.096-11.922 4.156-4.891 6.115-7.337 12.85-7.337 5.991 0 8.584 0.619 13.768 3.209 5.022 2.51 5.96 7.252 10.096 10.547-2.57 2.566-7.725 10.938-11.014 11.922-2.625 0.785-7.934-5.683-11.933-7.338-6.988-2.892-16.512-2.248-22.946 0.918"/>
  <path d="m28.447 115.58h-0.917"/>
  <path d="m27.53 115.58c1.801-4.864 6.999-8.278 10.096-11.922 4.156-4.891 6.115-7.337 12.85-7.337 5.991 0 8.584 0.619 13.768 3.209 5.022 2.51 5.96 7.252 10.096 10.547-2.57 2.566-7.725 10.938-11.014 11.922-2.539 0.759-8.961-6.349-13.31-7.796-7.224-2.403-15.803-1.161-22.486 1.377"/>
  <path d="m79.847 53.217c1.49-3.551 0.236-13.417 3.671-15.132 4.044-2.02 8.106-9.629 12.85-9.629 5.278 0 9.61-2.076 14.686 0.458 5.457 2.725 5.507 14.583 5.507 19.718-0.403-12.525-30.797-0.759-35.795 3.668"/>
  <path d="m80.765 52.299c-0.306 0.306-0.612 0.612-0.918 0.917"/>
  <path d="m79.847 53.217c1.49-3.551 0.236-13.417 3.671-15.132 4.044-2.02 8.106-9.629 12.85-9.629 5.278 0 9.61-2.076 14.686 0.458 5.457 2.725 5.507 14.583 5.507 19.718-0.402-12.462-31.993-0.941-36.714 4.585"/>
  <path d="m103.71 14.698c-1.924-11.032-14.078-12.249-22.028-8.254-3.836 1.928-7.369 4.316-10.097 8.254-4.227 6.1 0.488 6.33 3.672 11.922 5.2-8.656 18.098-17.72 28.453-11.922"/>
  <path d="m103.71 14.698c-1.924-11.032-14.078-12.249-22.028-8.254-3.836 1.928-7.369 4.316-10.097 8.254-4.227 6.1 0.488 6.33 3.672 11.922 5.2-8.656 18.098-17.72 28.453-11.922"/>
 </g>
</svg>
